<svg width="15" height="15" viewBox="0 0 15 15" fill="none" xmlns="http://www.w3.org/2000/svg">
<path d="M5.00001 8.125C4.83425 8.125 4.67528 8.19084 4.55807 8.30805C4.44086 8.42526 4.37501 8.58424 4.37501 8.75V11.875C4.37501 12.0408 4.44086 12.1997 4.55807 12.3169C4.67528 12.4341 4.83425 12.5 5.00001 12.5C5.16577 12.5 5.32474 12.4341 5.44195 12.3169C5.55916 12.1997 5.62501 12.0408 5.62501 11.875V8.75C5.62501 8.58424 5.55916 8.42526 5.44195 8.30805C5.32474 8.19084 5.16577 8.125 5.00001 8.125ZM7.50001 6.875C7.33425 6.875 7.17528 6.94084 7.05807 7.05805C6.94086 7.17526 6.87501 7.33424 6.87501 7.5V13.125C6.87501 13.2908 6.94086 13.4497 7.05807 13.5669C7.17528 13.6841 7.33425 13.75 7.50001 13.75C7.66577 13.75 7.82474 13.6841 7.94195 13.5669C8.05916 13.4497 8.12501 13.2908 8.12501 13.125V7.5C8.12501 7.33424 8.05916 7.17526 7.94195 7.05805C7.82474 6.94084 7.66577 6.875 7.50001 6.875ZM11.5125 3.8875C11.1306 3.01 10.4716 2.28192 9.63631 1.81482C8.80105 1.34773 7.83567 1.16739 6.88812 1.30144C5.94056 1.43549 5.06309 1.87653 4.39017 2.55698C3.71725 3.23743 3.28601 4.11975 3.16251 5.06874C2.61715 5.2006 2.13199 5.51207 1.78509 5.95306C1.4382 6.39405 1.24973 6.93892 1.25001 7.5C1.2489 7.85401 1.32298 8.20422 1.46736 8.52746C1.61174 8.85069 1.82312 9.13958 2.08751 9.375C2.14836 9.43344 2.22041 9.47896 2.29932 9.50881C2.37824 9.53866 2.46237 9.55223 2.54667 9.54869C2.63097 9.54516 2.71367 9.52459 2.78981 9.48823C2.86594 9.45187 2.93392 9.40047 2.98966 9.33714C3.0454 9.2738 3.08773 9.19983 3.11412 9.11969C3.1405 9.03955 3.15039 8.9549 3.14318 8.87084C3.13597 8.78678 3.11182 8.70505 3.07217 8.63057C3.03253 8.5561 2.97822 8.49042 2.91251 8.4375C2.78145 8.31922 2.67693 8.17452 2.60583 8.01293C2.53473 7.85135 2.49867 7.67653 2.50001 7.5C2.50001 7.16848 2.63171 6.85053 2.86613 6.61611C3.10055 6.38169 3.41849 6.25 3.75001 6.25C3.91577 6.25 4.07474 6.18415 4.19195 6.06694C4.30916 5.94973 4.37501 5.79076 4.37501 5.625C4.37661 4.88579 4.64019 4.17109 5.11893 3.60786C5.59767 3.04463 6.26057 2.66934 6.98986 2.54867C7.71914 2.42799 8.46759 2.56975 9.10224 2.94875C9.73689 3.32775 10.2166 3.91946 10.4563 4.61875C10.492 4.72614 10.5562 4.82183 10.6421 4.89558C10.7279 4.96933 10.8322 5.01838 10.9438 5.0375C11.3776 5.11233 11.7713 5.33745 12.0558 5.67341C12.3404 6.00937 12.4976 6.43474 12.5 6.875C12.5096 7.33518 12.3443 7.78186 12.0375 8.125C11.9377 8.24925 11.8892 8.40693 11.9018 8.56579C11.9144 8.72465 11.9872 8.87269 12.1053 8.97965C12.2235 9.08661 12.378 9.1444 12.5373 9.14121C12.6967 9.13802 12.8488 9.07409 12.9625 8.9625C13.3068 8.56909 13.5468 8.09562 13.6607 7.58542C13.7746 7.07522 13.7587 6.5446 13.6144 6.04214C13.4702 5.53969 13.2021 5.08145 12.8349 4.70939C12.4677 4.33733 12.013 4.06334 11.5125 3.9125V3.8875ZM10 8.125C9.83425 8.125 9.67528 8.19084 9.55807 8.30805C9.44086 8.42526 9.37501 8.58424 9.37501 8.75V11.875C9.37501 12.0408 9.44086 12.1997 9.55807 12.3169C9.67528 12.4341 9.83425 12.5 10 12.5C10.1658 12.5 10.3247 12.4341 10.442 12.3169C10.5592 12.1997 10.625 12.0408 10.625 11.875V8.75C10.625 8.58424 10.5592 8.42526 10.442 8.30805C10.3247 8.19084 10.1658 8.125 10 8.125Z" fill="#8C8C8C"/>
</svg>
