<svg width="48" height="48" viewBox="0 0 48 48" fill="none" xmlns="http://www.w3.org/2000/svg">
<path d="M24 44H24.02" stroke="#1877F2" stroke-width="2" stroke-linecap="round" stroke-linejoin="round"/>
<path d="M32 40H32.02" stroke="#1877F2" stroke-width="2" stroke-linecap="round" stroke-linejoin="round"/>
<path d="M16 40H16.02" stroke="#1877F2" stroke-width="2" stroke-linecap="round" stroke-linejoin="round"/>
<path d="M24 36H24.02" stroke="#1877F2" stroke-width="2" stroke-linecap="round" stroke-linejoin="round"/>
<path d="M40.0001 35.16C42.1026 34.2392 43.8243 32.6231 44.8762 30.5831C45.9282 28.543 46.2463 26.2032 45.7773 23.9564C45.3082 21.7095 44.0805 19.6924 42.3002 18.2437C40.5199 16.7949 38.2954 16.0027 36.0001 16H33.4801C32.8461 13.545 31.6378 11.2759 29.9547 9.37961C28.2716 7.48331 26.1619 6.01416 23.7996 5.09325C21.4373 4.17234 18.8899 3.82604 16.3674 4.08289C13.845 4.33975 11.4197 5.1924 9.29146 6.57057C7.16322 7.94874 5.39299 9.81297 4.12668 12.0096C2.86036 14.2062 2.13421 16.6724 2.00809 19.2047C1.88197 21.7371 2.35948 24.2631 3.40128 26.5747C4.44307 28.8863 6.0193 30.9172 8.00007 32.5" stroke="#1877F2" stroke-width="2" stroke-linecap="round" stroke-linejoin="round"/>
<path d="M32 32H32.02" stroke="#1877F2" stroke-width="2" stroke-linecap="round" stroke-linejoin="round"/>
<path d="M16 32H16.02" stroke="#1877F2" stroke-width="2" stroke-linecap="round" stroke-linejoin="round"/>
</svg>
