<svg width="15" height="15" viewBox="0 0 15 15" fill="none" xmlns="http://www.w3.org/2000/svg">
<path d="M5.99375 2.86875C6.13894 2.7227 6.31797 2.61478 6.51492 2.55459C6.71187 2.4944 6.92064 2.48381 7.12267 2.52375C7.32471 2.56369 7.51374 2.65293 7.67297 2.78353C7.8322 2.91414 7.9567 3.08206 8.03539 3.27237C8.11409 3.46269 8.14454 3.6695 8.12404 3.87442C8.10355 4.07934 8.03274 4.27602 7.91791 4.44698C7.80308 4.61794 7.64779 4.75788 7.46585 4.85436C7.2839 4.95084 7.08094 5.00087 6.875 5H1.25M7.86875 12.1313C8.01394 12.2773 8.19297 12.3852 8.38992 12.4454C8.58687 12.5056 8.79564 12.5162 8.99767 12.4763C9.19971 12.4363 9.38874 12.3471 9.54797 12.2165C9.7072 12.0859 9.8317 11.9179 9.91039 11.7276C9.98909 11.5373 10.0195 11.3305 9.99904 11.1256C9.97855 10.9207 9.90774 10.724 9.79291 10.553C9.67808 10.3821 9.52279 10.2421 9.34085 10.1456C9.1589 10.0492 8.95594 9.99914 8.75 10H1.25M11.0812 4.83125C11.263 4.64993 11.4867 4.5162 11.7325 4.44189C11.9782 4.36757 12.2385 4.35497 12.4903 4.40518C12.7421 4.4554 12.9776 4.56689 13.1761 4.7298C13.3745 4.8927 13.5298 5.102 13.6281 5.33919C13.7264 5.57637 13.7648 5.83413 13.7398 6.08966C13.7148 6.34519 13.6272 6.59062 13.4848 6.80425C13.3423 7.01788 13.1495 7.19312 12.9232 7.31447C12.6969 7.43582 12.4443 7.49954 12.1875 7.5H1.25" stroke="#8C8C8C" stroke-linecap="round" stroke-linejoin="round"/>
</svg>
